<?xml version="1.0" encoding="utf-8"?>
<svg xmlns="http://www.w3.org/2000/svg" viewBox="-0.0001 -0.0172 108.0002 107.9999" width="108px" height="108px" preserveAspectRatio="none"><g id="object-2" transform="matrix(0.55654693, 0, 0, 0.55785936, -351.47405059, -192.26152188)" style="transform-origin: 405.474px 246.244px;"><title>Path icon</title><rect x="308.447" y="149.446" width="194.054" height="193.597" style="transform-origin: 405.474px 246.244px;"/><g id="group-2" transform="matrix(0.018596, 0, 0, 0.018596, 361.074158, 228.961517)" style=""><title>Horseshoe</title><path d="M 6846.98 1949.1 C 6846.98 3063.09 6538.86 4124.01 5955.35 5016.78 L 4668.68 4176.56 C 5087.68 3534.36 5309.74 2763.94 5309.74 1949.67 C 5309.74 -22.023 4004.41 -1625.3 2400.43 -1625.3 C 796.371 -1625.3 -508.88 -22.023 -508.88 1949.67 C -508.88 2764.22 -286.95 3534.36 132.335 4176.56 L -1154.6 5016.78 C -1737.9 4124.06 -2046 3063.14 -2046 1949.1 C -2046 -869.66 -51.408 -3162.8 2400.48 -3162.8 C 4852.51 -3162.8 6846.98 -869 6846.98 1949.1 Z M -900.46 1210.82 C -887.33 921.172 -997.67 680.482 -1147.2 672.684 C -1296.8 665.265 -1428.8 893.478 -1442.2 1183.18 C -1455.7 1473.11 -1345 1713.66 -1195.3 1721.17 C -1045.4 1729.58 -913.32 1500.8 -900.46 1210.82 Z M -53.771 -1234.1 C -171.92 -1332.4 -403.63 -1226.2 -571.78 -997.73 C -739.4 -769.23 -779.48 -504.02 -661.33 -406.81 C -543.18 -308.32 -311.19 -414.46 -143.56 -643.67 C 24.301 -871.31 64.376 -1136.4 -53.771 -1234.1 Z M 2747.13 -2308.6 C 2747.13 -2529.8 2578.46 -2708.8 2370.43 -2708.8 C 2161.92 -2708.8 1993.72 -2529.7 1993.72 -2308.6 C 1993.72 -2088.1 2161.92 -1908.8 2370.43 -1908.8 C 2578.7 -1908.8 2747.13 -2088.1 2747.13 -2308.6 Z M 5372.65 -997.73 C 5204.22 -1226.2 4973.21 -1332.4 4854.45 -1234.1 C 4736.3 -1136.4 4776.57 -871.31 4944.1 -643.67 C 5111.73 -414.46 5343.25 -308.32 5461.73 -406.81 C 5580.16 -504.02 5540.18 -769.23 5372.65 -997.73 Z M 6243.02 1183.18 C 6230.16 893.478 6098.02 664.981 5948.02 672.684 C 5798.59 681.049 5688.24 921.172 5701.66 1210.82 C 5714.47 1500.8 5846.61 1728.97 5996.04 1721.17 C 6145.85 1714.22 6256.44 1473.11 6243.02 1183.18 Z" style="fill: rgb(255, 255, 255);" id="object-0"><title>White</title></path></g><g id="group-3" style="" transform="matrix(0.250853, 0, 0, 0.250853, 298.729919, 203.085648)"><title>Menorca big</title><path opacity="1.000000" stroke="none" d="M 438.463 129.043 C 441.494 120.995 450.108 120.268 454.888 124.672 C 457.7 127.263 458.833 130.652 459.223 134.319 C 459.832 140.039 459.556 145.788 459.627 151.525 C 459.635 152.209 459.628 152.893 459.628 154.139 C 462.135 150.651 464.918 149.773 468.09 151.909 C 469.105 150.926 468.681 149.933 468.934 149.099 C 469.738 146.457 471.239 144.42 474.062 143.862 C 478.52 142.98 483.06 142.905 487.51 143.692 C 493.987 144.836 498.35 151.514 498.732 157.574 C 498.974 161.405 498.166 165.14 497.783 168.916 C 497.53 171.411 497.389 173.917 497.194 176.418 C 497.068 178.02 498.19 178.408 499.396 178.518 C 501.634 178.722 503.894 179.007 506.127 178.893 C 514.899 178.446 521.121 184.389 524.468 191.391 C 527.42 197.566 527.442 197.627 534.174 198.017 C 541.977 198.468 549.773 198.016 557.563 198.336 C 560.889 198.473 563.994 199.627 566.865 201.271 C 568.411 202.157 569.502 203.733 569.051 205.469 C 568.508 207.557 568.673 210.244 565.72 211.05 C 564.265 211.447 563.308 212.214 563.89 214.146 C 564.569 216.397 563.149 218.393 562.442 220.428 C 560.692 225.463 559.545 230.578 559.868 235.945 C 559.963 237.513 560.299 238.92 562.346 239.141 C 563.307 237.903 563.528 236.363 563.916 234.897 C 564.465 232.816 565.25 230.923 567.642 230.429 C 570.163 229.908 573.04 230.909 574.094 233.297 C 575.821 237.212 578.634 238.514 582.727 238.602 C 587.207 238.697 589.095 240.957 588.88 245.44 C 588.703 249.113 588.045 252.718 586.276 256.04 C 585.191 258.08 583.733 259.771 581.848 261.065 C 579.934 262.379 579.091 264.213 578.879 266.442 C 578.131 274.35 580.992 281.187 585.061 287.708 C 588.474 293.177 593.479 296.712 599.144 299.383 C 603.93 301.639 606.81 305.326 608.073 310.332 C 608.934 313.741 606.96 317.588 603.852 319.291 C 599.89 321.462 595.803 323.045 591.031 322.413 C 591.382 324.545 591.764 326.421 591.988 328.316 C 592.421 331.983 591.605 335.496 589.525 338.445 C 583.593 346.854 579.123 356.083 574.196 365.056 C 571.297 370.335 567.05 373.825 561.073 374.917 C 553.949 376.218 546.809 376.771 539.693 374.747 C 537.124 374.016 534.825 372.728 532.511 371.464 C 527.647 368.808 522.661 366.34 517.976 363.396 C 511.572 359.371 505.843 354.512 501.04 348.566 C 497.967 344.761 494.651 341.167 491.708 337.232 C 489.077 333.715 485.643 331.077 481.302 329.538 C 476.703 327.907 472.172 326.031 467.82 323.733 C 464.146 321.792 460.002 321.14 455.932 320.548 C 449.462 319.606 443.773 316.819 438.382 313.375 C 433.521 310.269 429.582 306.037 425.506 302.008 C 421.14 297.694 416.593 293.648 411.256 290.526 C 409.511 289.504 407.664 288.785 405.835 288.013 C 400.879 285.921 396.315 283.179 391.958 280.057 C 388.293 277.429 384.319 275.791 379.77 275.084 C 375.088 274.357 370.509 272.891 365.928 271.595 C 360.508 270.063 354.925 269.63 349.381 268.957 C 345.883 268.533 342.331 267.969 338.849 269.187 C 335.81 270.249 332.768 271.298 329.796 272.553 C 323.329 275.283 316.544 277.119 309.935 279.458 C 306.522 280.666 302.812 280.688 299.233 280.839 C 290.942 281.19 282.636 281.255 274.336 281.303 C 272.166 281.316 269.966 281.034 267.859 280.347 C 263.607 278.96 260.89 276.023 260.197 271.695 C 259.279 265.963 259.191 260.147 260.004 254.373 C 260.443 251.259 262.12 248.553 263.528 245.839 C 265.323 242.379 266.274 238.795 266.558 234.974 C 266.835 231.252 267.137 227.531 267.329 223.804 C 267.55 219.508 264.887 216.819 260.446 216.722 C 256.824 216.643 253.93 212.283 255.376 208.551 C 253.944 209.837 252.466 210.303 250.88 210.369 C 248.778 210.456 246.639 208.442 246.15 205.751 C 245.263 200.867 244.646 195.945 244.883 190.966 C 244.957 189.424 244.442 187.924 244.831 186.352 C 245.375 184.151 246.455 182.321 248.516 181.425 C 252.574 179.663 255.083 176.311 257.519 172.927 C 260.159 169.261 262.137 165.18 264.223 161.18 C 266.454 156.9 269.924 154.64 274.75 154.563 C 279.444 154.489 284.143 154.543 288.812 153.942 C 293.856 153.294 298.422 151.147 303.108 149.369 C 307.145 147.837 311.351 147.261 315.636 147.6 C 318.798 147.85 321.018 149.901 323.036 152.115 C 323.867 153.026 324.705 153.887 325.718 154.6 C 327.091 155.567 328.109 155.203 328.942 153.889 C 329.839 152.474 330.781 151.084 331.607 149.628 C 334.407 144.694 339.621 143.258 344.596 145.47 C 351.092 148.357 357.908 149.983 364.843 150.932 C 371.839 151.889 378.614 150.714 385.102 147.53 C 391.687 144.299 398.827 142.736 406.143 142.214 C 411.248 141.85 415.685 143.926 419.967 146.424 C 422.221 147.739 424.55 148.697 427.295 148.045 C 429.825 147.444 431.363 145.808 432.618 143.677 C 435.291 139.135 436.312 133.944 438.463 129.043 M 267.482 177.271 C 264.244 182.044 260.766 186.583 255.606 189.485 C 254.946 189.856 254.77 190.442 254.861 191.129 C 255.251 194.063 255.376 197.024 255.7 199.958 C 255.882 201.601 255.668 203.417 256.739 205.131 C 258.368 203.775 260.232 203.957 261.999 204.15 C 268.761 204.89 274.449 207.38 277.392 214.088 C 278.117 215.74 278.77 217.443 279.687 218.986 C 281.299 221.7 281.732 224.722 281.838 227.711 C 282.165 236.933 281.422 246.045 276.744 254.286 C 274.693 257.9 275.491 261.589 275.375 265.441 C 276.736 265.525 277.886 265.627 279.038 265.663 C 285.025 265.849 291.015 265.435 297.009 265.966 C 300.137 266.243 303.393 266.577 306.46 265.855 C 314.146 264.045 321.949 262.703 329.33 259.639 C 333.213 258.028 337.198 256.432 341.577 256.34 C 349.539 256.174 357.405 257.078 365.175 258.609 C 370.593 259.676 375.83 261.742 381.268 262.594 C 388.011 263.651 393.93 266.181 399.518 269.969 C 402.267 271.833 404.773 274.125 408.016 275.261 C 415.788 277.982 422.608 282.38 428.757 287.754 C 433.499 291.898 437.908 296.421 442.523 300.713 C 446.668 304.567 451.57 307.029 457.087 308.264 C 463.048 309.598 469.079 310.625 474.546 313.648 C 478.54 315.857 482.812 317.511 487.053 319.205 C 490.057 320.405 492.823 321.987 495.288 324.142 C 501.401 329.484 505.626 336.453 511.124 342.341 C 515.316 346.83 519.998 350.618 525.148 353.754 C 529.201 356.221 533.556 358.235 537.692 360.606 C 540.621 362.285 543.655 363.937 547.088 363.815 C 550.613 363.691 554.189 363.985 557.67 363.153 C 559.403 362.738 561.281 362.547 562.335 360.769 C 563.91 358.11 565.48 355.447 567.073 352.798 C 570.585 346.955 573.312 340.656 577.674 335.303 C 581.611 330.473 581.395 327.357 577.729 322.265 C 575.746 319.51 572.966 317.828 570.435 315.761 C 567.065 313.009 563.994 309.962 564.275 304.996 C 564.679 297.861 570.061 295.73 575.635 298.355 C 579.665 300.252 583.005 303.074 585.873 306.439 C 587.659 308.534 590.098 309.568 592.423 310.799 C 593.266 311.245 594.132 311.079 595.017 310.399 C 591.156 308.056 587.165 306.173 583.81 303.359 C 574.835 295.832 569.605 286.063 567.924 274.607 C 567.024 268.473 567.82 262.292 571.247 256.776 C 572.393 254.932 574.057 253.588 575.62 252.157 C 576.637 251.226 577.216 250.186 577.261 248.728 C 575.029 247.787 572.561 247.337 570.729 245.495 C 569.631 246.717 568.577 248.002 567.052 248.331 C 560.695 249.703 552.418 247.154 551.068 238.417 C 550.649 235.701 551.266 233.184 551.476 230.576 C 552.029 223.672 553.492 217.047 557.278 211.094 C 556.63 210.66 555.902 210.87 555.214 210.858 C 546.793 210.7 538.363 210.99 529.951 210.411 C 523.399 209.96 518.211 207.256 515.182 201.154 C 514.523 199.827 514.038 198.39 513.229 197.165 C 511.441 194.456 509.85 191.51 505.911 191.333 C 504.043 191.25 502.176 191.197 500.313 191.212 C 497.417 191.237 494.683 190.618 492.102 189.359 C 487.668 187.194 484.709 183.925 484.8 178.705 C 484.862 175.112 484.754 171.509 485.187 167.922 C 485.534 165.048 485.912 162.165 486 159.277 C 486.065 157.155 485.134 156.338 483.363 156.369 C 482.885 158.044 483.687 159.656 483.648 161.322 C 483.505 167.568 483.915 173.829 483.216 180.06 C 482.778 183.961 481.87 187.662 477.624 189.209 C 474.663 190.288 471.731 189.587 468.938 188.522 C 464.315 186.759 459.476 182.564 460.113 176.702 C 460.165 176.219 460.232 175.652 459.581 175.205 C 455.353 175.84 452.337 174.046 450.609 170.049 C 450.201 169.107 449.88 168.128 449.51 167.169 C 447.792 162.718 445.966 158.318 446.561 153.341 C 446.799 151.346 446.6 149.299 446.6 147.15 C 446.329 147.313 446.248 147.332 446.231 147.376 C 445.996 147.974 445.792 148.585 445.538 149.175 C 443.606 153.667 440.756 157.64 436.595 160.057 C 428.698 164.644 420.554 164.42 412.527 159.936 C 410.312 158.699 408.136 157.176 405.324 157.612 C 400.661 158.335 396.184 159.73 391.692 161.123 C 387.402 162.452 383.231 164.381 378.638 164.442 C 366.433 164.605 354.474 163.069 342.98 158.792 C 341.682 158.309 341.206 158.696 340.703 159.615 C 339.084 162.578 336.581 164.685 333.95 166.676 C 331.859 168.257 329.53 168.702 327.008 168.087 C 321.932 166.85 317.473 164.556 314.191 160.354 C 313.32 159.239 312.397 158.777 310.888 158.973 C 308.814 159.242 306.862 159.782 304.965 160.593 C 299.546 162.911 294.009 164.621 288.041 164.945 C 283.984 165.165 279.935 165.137 275.882 165.172 C 274.647 165.182 273.857 165.552 273.26 166.686 C 271.432 170.159 269.505 173.581 267.482 177.271 Z" style="stroke-width: 0.387; paint-order: fill; fill: rgb(255, 255, 255);"/></g></g></svg>