<?xml version="1.0" encoding="utf-8"?>
<svg xmlns="http://www.w3.org/2000/svg" viewBox="0 0 500 500" xmlns:bx="https://boxy-svg.com">
  <defs>
    <bx:export>
      <bx:file format="svg" href="#group-1" path="Icon_white.svg" excluded="true"/>
      <bx:file format="png" href="#group-1" path="Icon_white.png" width="1024" height="1024" dpi="100"/>
    </bx:export>
    <linearGradient gradientUnits="userSpaceOnUse" x1="2414.09" y1="-3636.9" x2="2414.09" y2="5503.72" id="gradient-0" gradientTransform="matrix(0.02116, 0, 0, 0.02116, 355.020905, 226.905365)">
      <stop offset="0" style="stop-color: rgb(0% 0% 0%)"/>
      <stop offset="1" style="stop-color: rgb(0% 0% 0%)"/>
    </linearGradient>
    <linearGradient id="gradient-1" bx:pinned="true">
      <title>Azzurro - Blu</title>
      <stop offset="0.3" style="stop-color: rgb(0, 200, 255);"/>
      <stop offset="1" style="stop-color: rgb(0, 76, 255);"/>
    </linearGradient>
    <linearGradient id="gradient-1-0" href="#gradient-1" gradientUnits="userSpaceOnUse" x1="2414.09" y1="-3636.9" x2="2414.09" y2="5503.72" gradientTransform="matrix(0.02116, 0, 0, 0.02116, 355.020905, 226.905365)"/>
    <linearGradient id="gradient-3" bx:pinned="true">
      <title>Bianco - Grigio</title>
      <stop offset="0" style="stop-color: rgb(255, 255, 255);"/>
      <stop offset="0.554" style="stop-color: rgb(255, 255, 255);"/>
      <stop offset="1" style="stop-color: rgb(223, 223, 223);"/>
    </linearGradient>
    <linearGradient id="gradient-1-1" href="#gradient-1" gradientUnits="userSpaceOnUse" x1="2414.09" y1="-3636.9" x2="2414.09" y2="5503.72" gradientTransform="matrix(0.021204, 0, 0, 0.021158, 355.642756, 226.817491)" spreadMethod="pad"/>
    <linearGradient gradientUnits="userSpaceOnUse" x1="2414.09" y1="-3636.9" x2="2414.09" y2="5503.72" id="gradient-2" gradientTransform="matrix(0.021204, 0, 0, 0.021158, 355.642756, 226.817491)" spreadMethod="pad">
      <stop offset="0" style="stop-color: rgb(0% 0% 0%)"/>
      <stop offset="1" style="stop-color: rgb(0% 0% 0%)"/>
    </linearGradient>
    <linearGradient id="gradient-1-2" href="#gradient-1" gradientUnits="userSpaceOnUse" x1="2414.09" y1="-3636.9" x2="2414.09" y2="5503.72" gradientTransform="matrix(0.021204, 0, 0, 0.021158, 355.642756, 226.817491)" spreadMethod="pad"/>
    <linearGradient gradientUnits="userSpaceOnUse" x1="2414.09" y1="-3636.9" x2="2414.09" y2="5503.72" id="gradient-4" gradientTransform="matrix(0.021204, 0, 0, 0.021158, 355.642756, 226.817491)" spreadMethod="pad">
      <stop offset="0" style="stop-color: rgb(0% 0% 0%)"/>
      <stop offset="1" style="stop-color: rgb(0% 0% 0%)"/>
    </linearGradient>
    <filter id="round-edges-filter-0" bx:preset="round-edges 1 5" color-interpolation-filters="sRGB" x="-50%" y="-50%" width="200%" height="200%">
      <feGaussianBlur in="SourceGraphic" stdDeviation="5 5"/>
      <feColorMatrix mode="matrix" values="1 0 0 0 0  0 1 0 0 0  0 0 1 0 0  0 0 0 200 -100"/>
      <feComposite in="SourceGraphic" operator="atop"/>
    </filter>
  </defs>
  <g id="Capa_1" style="visibility: hidden;" transform="matrix(2.582995, 0, 0, 2.582995, -798.218384, -386.762146)">
    <title>Black and White</title>
    <g>
      <title>Sfondo</title>
      <rect x="309.379" y="149.949" width="193.449" height="193.416" style="stroke: url(&quot;#gradient-0&quot;); fill: url(&quot;#gradient-1-0&quot;);">
        <title>Sfondo gradient</title>
      </rect>
    </g>
    <g id="group-R5" transform="matrix(0.02116, 0, 0, 0.02116, 355.020905, 226.905365)" style="">
      <title>Horseshoe</title>
      <path d="M 6920.4 1977.83 C 6920.4 3110.81 6607.03 4189.83 6013.57 5097.82 L 4704.96 4243.27 C 5131.1 3590.12 5356.95 2806.56 5356.95 1978.4 C 5356.95 -26.926 4029.36 -1657.4 2398.03 -1657.4 C 766.623 -1657.4 -560.84 -26.926 -560.84 1978.4 C -560.84 2806.85 -335.17 3590.12 91.268 4243.27 L -1217.7 5097.82 C -1810.9 4189.87 -2124.3 3110.86 -2124.3 1977.83 C -2124.3 -888.99 -95.614 -3221.2 2398.08 -3221.2 C 4891.92 -3221.2 6920.4 -888.32 6920.4 1977.83 Z M -959.1 1226.96 C -945.8 932.352 -1058.1 687.559 -1210.2 679.627 C -1362.4 672.082 -1496.5 904.19 -1510.2 1198.84 C -1523.9 1493.72 -1411.3 1738.37 -1259.1 1746.01 C -1106.6 1754.56 -972.3 1521.88 -959.1 1226.96 Z M -98.014 -1259.6 C -218.21 -1359.6 -453.85 -1251.5 -624.82 -1019.3 C -795.38 -786.85 -836.06 -517.12 -715.95 -418.26 C -595.74 -318.1 -359.78 -426.04 -189.34 -659.16 C -18.614 -890.67 22.149 -1160.2 -98.014 -1259.6 Z M 2750.64 -2352.4 C 2750.64 -2577.4 2579.1 -2759.4 2367.52 -2759.4 C 2155.45 -2759.4 1984.38 -2577.4 1984.38 -2352.4 C 1984.38 -2128.2 2155.45 -1945.8 2367.52 -1945.8 C 2579.34 -1945.8 2750.64 -2128.2 2750.64 -2352.4 Z M 5420.93 -1019.3 C 5249.63 -1251.5 5014.68 -1359.6 4893.9 -1259.6 C 4773.73 -1160.2 4814.68 -890.67 4985.07 -659.16 C 5155.56 -426.04 5391.03 -318.1 5511.53 -418.26 C 5631.98 -517.12 5591.32 -786.85 5420.93 -1019.3 Z M 6306.14 1198.84 C 6293.06 904.19 6158.67 671.793 6006.12 679.627 C 5854.13 688.135 5741.9 932.352 5755.55 1226.96 C 5768.58 1521.88 5902.98 1753.94 6054.95 1746.01 C 6207.32 1738.94 6319.8 1493.72 6306.14 1198.84 Z" style="stroke-width: 1; fill: rgb(255, 255, 255);">
        <title>Black 1</title>
      </path>
      <path d="M 6677.64 1914.7 C 6677.64 2988 6380.78 4010.19 5818.58 4870.35 L 4578.89 4060.81 C 4982.59 3442.07 5196.54 2699.78 5196.54 1915.24 C 5196.54 15.528 3938.88 -1529.1 2393.48 -1529.1 C 847.992 -1529.1 -409.58 15.528 -409.58 1915.24 C -409.58 2700.05 -195.77 3442.07 208.21 4060.81 L -1031.8 4870.35 C -1593.7 4010.23 -1890.6 2988.05 -1890.6 1914.7 C -1890.6 -801.12 31.173 -3010.5 2393.53 -3010.5 C 4756.01 -3010.5 6677.64 -800.48 6677.64 1914.7 Z M -786.8 1203.38 C -774.2 924.277 -880.59 692.379 -1024.6 684.865 C -1168.8 677.717 -1295.9 897.6 -1308.8 1176.74 C -1321.8 1456.09 -1215.2 1687.85 -1071 1695.09 C -926.5 1703.19 -799.31 1482.77 -786.8 1203.38 Z M 28.9 -1152.2 C -84.934 -1247 -308.21 -1144.6 -470.11 -924.56 C -631.73 -704.36 -670.28 -448.83 -556.51 -355.18 C -442.64 -260.3 -219.07 -362.55 -57.652 -583.39 C 104.117 -802.71 142.73 -1058.1 28.9 -1152.2 Z M 2727.52 -2187.5 C 2727.52 -2400.6 2565.01 -2573 2364.58 -2573 C 2163.68 -2573 2001.62 -2400.6 2001.62 -2187.5 C 2001.62 -1975.1 2163.68 -1802.3 2364.58 -1802.3 C 2565.24 -1802.3 2727.52 -1975.1 2727.52 -2187.5 Z M 5257.15 -924.56 C 5094.88 -1144.6 4872.3 -1247 4757.88 -1152.2 C 4644.04 -1058.1 4682.84 -802.71 4844.25 -583.39 C 5005.76 -362.55 5228.83 -260.3 5342.98 -355.18 C 5457.09 -448.83 5418.57 -704.36 5257.15 -924.56 Z M 6095.74 1176.74 C 6083.35 897.6 5956.03 677.443 5811.52 684.865 C 5667.54 692.925 5561.22 924.277 5574.15 1203.38 C 5586.49 1482.77 5713.81 1702.6 5857.78 1695.09 C 6002.12 1688.39 6108.68 1456.09 6095.74 1176.74 Z" style="stroke-width: 1; fill: rgb(255, 255, 255);">
        <title>Black 2</title>
      </path>
      <path d="M 6846.98 1949.1 C 6846.98 3063.09 6538.86 4124.01 5955.35 5016.78 L 4668.68 4176.56 C 5087.68 3534.36 5309.74 2763.94 5309.74 1949.67 C 5309.74 -22.023 4004.41 -1625.3 2400.43 -1625.3 C 796.371 -1625.3 -508.88 -22.023 -508.88 1949.67 C -508.88 2764.22 -286.95 3534.36 132.335 4176.56 L -1154.6 5016.78 C -1737.9 4124.06 -2046 3063.14 -2046 1949.1 C -2046 -869.66 -51.408 -3162.8 2400.48 -3162.8 C 4852.51 -3162.8 6846.98 -869 6846.98 1949.1 Z M -900.46 1210.82 C -887.33 921.172 -997.67 680.482 -1147.2 672.684 C -1296.8 665.265 -1428.8 893.478 -1442.2 1183.18 C -1455.7 1473.11 -1345 1713.66 -1195.3 1721.17 C -1045.4 1729.58 -913.32 1500.8 -900.46 1210.82 Z M -53.771 -1234.1 C -171.92 -1332.4 -403.63 -1226.2 -571.78 -997.73 C -739.4 -769.23 -779.48 -504.02 -661.33 -406.81 C -543.18 -308.32 -311.19 -414.46 -143.56 -643.67 C 24.301 -871.31 64.376 -1136.4 -53.771 -1234.1 Z M 2747.13 -2308.6 C 2747.13 -2529.8 2578.46 -2708.8 2370.43 -2708.8 C 2161.92 -2708.8 1993.72 -2529.7 1993.72 -2308.6 C 1993.72 -2088.1 2161.92 -1908.8 2370.43 -1908.8 C 2578.7 -1908.8 2747.13 -2088.1 2747.13 -2308.6 Z M 5372.65 -997.73 C 5204.22 -1226.2 4973.21 -1332.4 4854.45 -1234.1 C 4736.3 -1136.4 4776.57 -871.31 4944.1 -643.67 C 5111.73 -414.46 5343.25 -308.32 5461.73 -406.81 C 5580.16 -504.02 5540.18 -769.23 5372.65 -997.73 Z M 6243.02 1183.18 C 6230.16 893.478 6098.02 664.981 5948.02 672.684 C 5798.59 681.049 5688.24 921.172 5701.66 1210.82 C 5714.47 1500.8 5846.61 1728.97 5996.04 1721.17 C 6145.85 1714.22 6256.44 1473.11 6243.02 1183.18 Z" style="">
        <title>White</title>
      </path>
    </g>
    <g id="svg-1" style="" transform="matrix(0.30819, 0, 0, 0.30819, 274.533752, 192.453552)">
      <title>Menorca big</title>
      <path opacity="1.000000" stroke="none" d="M 438.463 129.043 C 441.494 120.995 450.108 120.268 454.888 124.672 C 457.7 127.263 458.833 130.652 459.223 134.319 C 459.832 140.039 459.556 145.788 459.627 151.525 C 459.635 152.209 459.628 152.893 459.628 154.139 C 462.135 150.651 464.918 149.773 468.09 151.909 C 469.105 150.926 468.681 149.933 468.934 149.099 C 469.738 146.457 471.239 144.42 474.062 143.862 C 478.52 142.98 483.06 142.905 487.51 143.692 C 493.987 144.836 498.35 151.514 498.732 157.574 C 498.974 161.405 498.166 165.14 497.783 168.916 C 497.53 171.411 497.389 173.917 497.194 176.418 C 497.068 178.02 498.19 178.408 499.396 178.518 C 501.634 178.722 503.894 179.007 506.127 178.893 C 514.899 178.446 521.121 184.389 524.468 191.391 C 527.42 197.566 527.442 197.627 534.174 198.017 C 541.977 198.468 549.773 198.016 557.563 198.336 C 560.889 198.473 563.994 199.627 566.865 201.271 C 568.411 202.157 569.502 203.733 569.051 205.469 C 568.508 207.557 568.673 210.244 565.72 211.05 C 564.265 211.447 563.308 212.214 563.89 214.146 C 564.569 216.397 563.149 218.393 562.442 220.428 C 560.692 225.463 559.545 230.578 559.868 235.945 C 559.963 237.513 560.299 238.92 562.346 239.141 C 563.307 237.903 563.528 236.363 563.916 234.897 C 564.465 232.816 565.25 230.923 567.642 230.429 C 570.163 229.908 573.04 230.909 574.094 233.297 C 575.821 237.212 578.634 238.514 582.727 238.602 C 587.207 238.697 589.095 240.957 588.88 245.44 C 588.703 249.113 588.045 252.718 586.276 256.04 C 585.191 258.08 583.733 259.771 581.848 261.065 C 579.934 262.379 579.091 264.213 578.879 266.442 C 578.131 274.35 580.992 281.187 585.061 287.708 C 588.474 293.177 593.479 296.712 599.144 299.383 C 603.93 301.639 606.81 305.326 608.073 310.332 C 608.934 313.741 606.96 317.588 603.852 319.291 C 599.89 321.462 595.803 323.045 591.031 322.413 C 591.382 324.545 591.764 326.421 591.988 328.316 C 592.421 331.983 591.605 335.496 589.525 338.445 C 583.593 346.854 579.123 356.083 574.196 365.056 C 571.297 370.335 567.05 373.825 561.073 374.917 C 553.949 376.218 546.809 376.771 539.693 374.747 C 537.124 374.016 534.825 372.728 532.511 371.464 C 527.647 368.808 522.661 366.34 517.976 363.396 C 511.572 359.371 505.843 354.512 501.04 348.566 C 497.967 344.761 494.651 341.167 491.708 337.232 C 489.077 333.715 485.643 331.077 481.302 329.538 C 476.703 327.907 472.172 326.031 467.82 323.733 C 464.146 321.792 460.002 321.14 455.932 320.548 C 449.462 319.606 443.773 316.819 438.382 313.375 C 433.521 310.269 429.582 306.037 425.506 302.008 C 421.14 297.694 416.593 293.648 411.256 290.526 C 409.511 289.504 407.664 288.785 405.835 288.013 C 400.879 285.921 396.315 283.179 391.958 280.057 C 388.293 277.429 384.319 275.791 379.77 275.084 C 375.088 274.357 370.509 272.891 365.928 271.595 C 360.508 270.063 354.925 269.63 349.381 268.957 C 345.883 268.533 342.331 267.969 338.849 269.187 C 335.81 270.249 332.768 271.298 329.796 272.553 C 323.329 275.283 316.544 277.119 309.935 279.458 C 306.522 280.666 302.812 280.688 299.233 280.839 C 290.942 281.19 282.636 281.255 274.336 281.303 C 272.166 281.316 269.966 281.034 267.859 280.347 C 263.607 278.96 260.89 276.023 260.197 271.695 C 259.279 265.963 259.191 260.147 260.004 254.373 C 260.443 251.259 262.12 248.553 263.528 245.839 C 265.323 242.379 266.274 238.795 266.558 234.974 C 266.835 231.252 267.137 227.531 267.329 223.804 C 267.55 219.508 264.887 216.819 260.446 216.722 C 256.824 216.643 253.93 212.283 255.376 208.551 C 253.944 209.837 252.466 210.303 250.88 210.369 C 248.778 210.456 246.639 208.442 246.15 205.751 C 245.263 200.867 244.646 195.945 244.883 190.966 C 244.957 189.424 244.442 187.924 244.831 186.352 C 245.375 184.151 246.455 182.321 248.516 181.425 C 252.574 179.663 255.083 176.311 257.519 172.927 C 260.159 169.261 262.137 165.18 264.223 161.18 C 266.454 156.9 269.924 154.64 274.75 154.563 C 279.444 154.489 284.143 154.543 288.812 153.942 C 293.856 153.294 298.422 151.147 303.108 149.369 C 307.145 147.837 311.351 147.261 315.636 147.6 C 318.798 147.85 321.018 149.901 323.036 152.115 C 323.867 153.026 324.705 153.887 325.718 154.6 C 327.091 155.567 328.109 155.203 328.942 153.889 C 329.839 152.474 330.781 151.084 331.607 149.628 C 334.407 144.694 339.621 143.258 344.596 145.47 C 351.092 148.357 357.908 149.983 364.843 150.932 C 371.839 151.889 378.614 150.714 385.102 147.53 C 391.687 144.299 398.827 142.736 406.143 142.214 C 411.248 141.85 415.685 143.926 419.967 146.424 C 422.221 147.739 424.55 148.697 427.295 148.045 C 429.825 147.444 431.363 145.808 432.618 143.677 C 435.291 139.135 436.312 133.944 438.463 129.043 M 267.482 177.271 C 264.244 182.044 260.766 186.583 255.606 189.485 C 254.946 189.856 254.77 190.442 254.861 191.129 C 255.251 194.063 255.376 197.024 255.7 199.958 C 255.882 201.601 255.668 203.417 256.739 205.131 C 258.368 203.775 260.232 203.957 261.999 204.15 C 268.761 204.89 274.449 207.38 277.392 214.088 C 278.117 215.74 278.77 217.443 279.687 218.986 C 281.299 221.7 281.732 224.722 281.838 227.711 C 282.165 236.933 281.422 246.045 276.744 254.286 C 274.693 257.9 275.491 261.589 275.375 265.441 C 276.736 265.525 277.886 265.627 279.038 265.663 C 285.025 265.849 291.015 265.435 297.009 265.966 C 300.137 266.243 303.393 266.577 306.46 265.855 C 314.146 264.045 321.949 262.703 329.33 259.639 C 333.213 258.028 337.198 256.432 341.577 256.34 C 349.539 256.174 357.405 257.078 365.175 258.609 C 370.593 259.676 375.83 261.742 381.268 262.594 C 388.011 263.651 393.93 266.181 399.518 269.969 C 402.267 271.833 404.773 274.125 408.016 275.261 C 415.788 277.982 422.608 282.38 428.757 287.754 C 433.499 291.898 437.908 296.421 442.523 300.713 C 446.668 304.567 451.57 307.029 457.087 308.264 C 463.048 309.598 469.079 310.625 474.546 313.648 C 478.54 315.857 482.812 317.511 487.053 319.205 C 490.057 320.405 492.823 321.987 495.288 324.142 C 501.401 329.484 505.626 336.453 511.124 342.341 C 515.316 346.83 519.998 350.618 525.148 353.754 C 529.201 356.221 533.556 358.235 537.692 360.606 C 540.621 362.285 543.655 363.937 547.088 363.815 C 550.613 363.691 554.189 363.985 557.67 363.153 C 559.403 362.738 561.281 362.547 562.335 360.769 C 563.91 358.11 565.48 355.447 567.073 352.798 C 570.585 346.955 573.312 340.656 577.674 335.303 C 581.611 330.473 581.395 327.357 577.729 322.265 C 575.746 319.51 572.966 317.828 570.435 315.761 C 567.065 313.009 563.994 309.962 564.275 304.996 C 564.679 297.861 570.061 295.73 575.635 298.355 C 579.665 300.252 583.005 303.074 585.873 306.439 C 587.659 308.534 590.098 309.568 592.423 310.799 C 593.266 311.245 594.132 311.079 595.017 310.399 C 591.156 308.056 587.165 306.173 583.81 303.359 C 574.835 295.832 569.605 286.063 567.924 274.607 C 567.024 268.473 567.82 262.292 571.247 256.776 C 572.393 254.932 574.057 253.588 575.62 252.157 C 576.637 251.226 577.216 250.186 577.261 248.728 C 575.029 247.787 572.561 247.337 570.729 245.495 C 569.631 246.717 568.577 248.002 567.052 248.331 C 560.695 249.703 552.418 247.154 551.068 238.417 C 550.649 235.701 551.266 233.184 551.476 230.576 C 552.029 223.672 553.492 217.047 557.278 211.094 C 556.63 210.66 555.902 210.87 555.214 210.858 C 546.793 210.7 538.363 210.99 529.951 210.411 C 523.399 209.96 518.211 207.256 515.182 201.154 C 514.523 199.827 514.038 198.39 513.229 197.165 C 511.441 194.456 509.85 191.51 505.911 191.333 C 504.043 191.25 502.176 191.197 500.313 191.212 C 497.417 191.237 494.683 190.618 492.102 189.359 C 487.668 187.194 484.709 183.925 484.8 178.705 C 484.862 175.112 484.754 171.509 485.187 167.922 C 485.534 165.048 485.912 162.165 486 159.277 C 486.065 157.155 485.134 156.338 483.363 156.369 C 482.885 158.044 483.687 159.656 483.648 161.322 C 483.505 167.568 483.915 173.829 483.216 180.06 C 482.778 183.961 481.87 187.662 477.624 189.209 C 474.663 190.288 471.731 189.587 468.938 188.522 C 464.315 186.759 459.476 182.564 460.113 176.702 C 460.165 176.219 460.232 175.652 459.581 175.205 C 455.353 175.84 452.337 174.046 450.609 170.049 C 450.201 169.107 449.88 168.128 449.51 167.169 C 447.792 162.718 445.966 158.318 446.561 153.341 C 446.799 151.346 446.6 149.299 446.6 147.15 C 446.329 147.313 446.248 147.332 446.231 147.376 C 445.996 147.974 445.792 148.585 445.538 149.175 C 443.606 153.667 440.756 157.64 436.595 160.057 C 428.698 164.644 420.554 164.42 412.527 159.936 C 410.312 158.699 408.136 157.176 405.324 157.612 C 400.661 158.335 396.184 159.73 391.692 161.123 C 387.402 162.452 383.231 164.381 378.638 164.442 C 366.433 164.605 354.474 163.069 342.98 158.792 C 341.682 158.309 341.206 158.696 340.703 159.615 C 339.084 162.578 336.581 164.685 333.95 166.676 C 331.859 168.257 329.53 168.702 327.008 168.087 C 321.932 166.85 317.473 164.556 314.191 160.354 C 313.32 159.239 312.397 158.777 310.888 158.973 C 308.814 159.242 306.862 159.782 304.965 160.593 C 299.546 162.911 294.009 164.621 288.041 164.945 C 283.984 165.165 279.935 165.137 275.882 165.172 C 274.647 165.182 273.857 165.552 273.26 166.686 C 271.432 170.159 269.505 173.581 267.482 177.271 Z" style="stroke-width: 0.387; paint-order: fill; fill: rgb(255, 255, 255);"/>
    </g>
    <g id="Layer_1" style="" transform="matrix(0.006496, 0, 0, 0.006496, 379.966827, 266.524261)">
      <title>Menorca small</title>
      <path fill="#000000" opacity="1.000000" stroke="none" d="M 11184.7 5198.66 C 11077 5397.45 10974.3 5591.29 10868 5783.15 C 10754.4 5988.21 10588 6126.07 10353.4 6171.94 C 10034.5 6234.3 9715.43 6267.85 9395.24 6179.36 C 9204.49 6126.65 9042.91 6015 8871.65 5922.77 C 8522.83 5734.92 8169.48 5552.53 7883.22 5271.53 C 7644.04 5036.75 7420.97 4786.29 7221.56 4516.56 C 7073.86 4316.78 6904.8 4149.34 6666.89 4058.22 C 6433.87 3968.98 6202.33 3875.97 5978.4 3764.07 C 5757.59 3653.71 5510.14 3636.38 5273.8 3580.06 C 4972.63 3508.3 4700.14 3374.51 4465.57 3172.4 C 4227.83 2967.55 4010.93 2739.56 3778.81 2528.84 C 3578.44 2346.94 3354.93 2191.86 3097 2094.89 C 2826.47 1993.18 2591.67 1828.38 2353.18 1669.91 C 2221.34 1582.31 2087.07 1505.62 1922.6 1482.87 C 1641.87 1444.03 1372.8 1350.78 1098.4 1282.02 C 850.112 1219.81 593.028 1207.57 341.446 1164.08 C -17.642 1102 -337.17 1219.01 -652.07 1365.41 C -843.61 1454.47 -1056.6 1480.93 -1248 1568.67 C -1537.6 1701.4 -1845.6 1720.25 -2157.1 1733.54 C -2501.3 1748.21 -2845.4 1749.32 -3189.6 1751.15 C -3269.5 1751.57 -3348.7 1741.81 -3424.9 1723.78 C -3594.8 1683.57 -3724.4 1581.97 -3754.2 1406.27 C -3804.9 1106.38 -3842.2 802.3 -3742.2 503.915 C -3710.5 409.393 -3670.4 314.993 -3617.8 230.76 C -3503.5 47.867 -3472.6 -155.77 -3457.1 -362.34 C -3444.7 -528.86 -3437 -695.49 -3418.3 -861.78 C -3395 -1069.2 -3568.4 -1281.4 -3778.5 -1290.2 C -3901 -1295.3 -3965.2 -1340.6 -4002.9 -1453.1 C -4034.1 -1546.3 -3966.6 -1688.3 -3872.9 -1688.8 C -3709.8 -1689.7 -3557.9 -1654 -3410.9 -1571.4 C -3221.1 -1464.7 -3151.6 -1281.8 -3063 -1105.3 C -2897.7 -776.41 -2943.2 -431.8 -2974 -86.32 C -2992.8 124.624 -3066.3 317.978 -3162.3 500.713 C -3253.3 674.025 -3274.3 851.477 -3253.8 1039.8 C -3235.3 1210.83 -3235.3 1213.24 -3065.1 1213.42 C -2635.4 1213.87 -2206 1227.58 -1776.6 1243.36 C -1746.4 1244.47 -1715.1 1243.29 -1685.8 1236.75 C -1492.8 1193.79 -1301.2 1144.14 -1107.3 1106.13 C -860.13 1057.68 -631.15 954.886 -398.47 867.295 C -121.89 763.178 156.759 772.247 439.217 795.029 C 584.313 806.732 727.917 835.84 872.792 851.605 C 1171.53 884.112 1452.69 988.152 1741.53 1060.76 C 1889.34 1097.91 2043.44 1103.91 2188.62 1152.4 C 2405.59 1224.88 2591.96 1355.99 2773.25 1487.28 C 2936.96 1605.83 3118.04 1680.06 3298.46 1759.85 C 3597.26 1891.99 3854.94 2082.79 4091.76 2304.51 C 4318.09 2516.42 4532.9 2742.68 4774.2 2935.86 C 4945.65 3073.12 5148.48 3174.85 5370.17 3222.62 C 5596.14 3271.32 5827.01 3303.61 6040.82 3396.27 C 6236.3 3480.99 6427.84 3574.82 6620.85 3665.21 C 6755.81 3728.41 6903.04 3764.81 7028.18 3849.22 C 7233.03 3987.41 7387.42 4173.57 7538.55 4366.84 C 7831.68 4741.71 8143.96 5102.24 8559.07 5348.68 C 8828.48 5508.63 9108.52 5651.64 9389.32 5791.12 C 9578.99 5885.34 9788.25 5864.2 9991.85 5850.49 C 10091.4 5843.78 10191.1 5831.3 10289.8 5810.4 C 10407.3 5785.52 10484.7 5715.99 10541 5616.08 C 10708.5 5318.92 10875.2 5021.3 11043.3 4724.51 C 11114 4599.78 11213.9 4495.64 11289.4 4373.19 C 11407.5 4181.57 11393 3999.05 11283.2 3814.33 C 11181.3 3643.08 11038.9 3513.36 10871.2 3407.66 C 10782.3 3351.55 10719.4 3266.54 10661 3181.14 C 10583.4 3067.41 10588.8 2945.21 10649.5 2826.17 C 10699.7 2727.74 10794.1 2689.47 10904.8 2721.65 C 11099.3 2778.22 11245.6 2911.27 11380.9 3050.62 C 11484.6 3157.43 11598.4 3242.4 11726.3 3315.51 C 11864.8 3394.66 11924.5 3405.7 12110.9 3279.85 C 12091.9 3206.36 12050.1 3155.58 11979.6 3118.38 C 11636.8 2937.59 11314.9 2728.86 11112 2384.23 C 10928.8 2073.09 10755.1 1753.22 10768.1 1378.43 C 10775.5 1164.87 10787.8 944.795 10921.4 758.293 C 10964.4 698.162 11012.8 642.283 11072.3 600.394 C 11180.9 523.876 11217.7 409.342 11250.7 291.436 C 11261.6 252.581 11260.4 215.506 11206.4 212.729 C 11031.1 203.714 10895.8 116.761 10782.7 -5.438 C 10754.7 -2.776 10751 17.853 10743.9 33.359 C 10672.4 188.698 10627.2 216.657 10453.8 210.76 C 10164.9 200.938 9970.47 8.83 9976.79 -280.56 C 9984.28 -623.62 10047.9 -957.48 10184 -1275.1 C 10212.2 -1340.7 10250.7 -1391.1 10328.9 -1360.5 C 10404 -1331 10395.7 -1269.1 10373.3 -1206.2 C 10293.9 -982.34 10218.2 -757.33 10197 -518.7 C 10186.1 -394.6 10171.4 -270.15 10222.5 -149.42 C 10255.8 -70.785 10398.9 3.465 10478.3 -21.634 C 10512.1 -32.325 10520.5 -61.717 10528.9 -92.011 C 10553.3 -180.06 10575 -269.11 10605.2 -355.19 C 10641.3 -458.16 10724 -480.27 10815.7 -420.51 C 10875.1 -381.73 10908.7 -323.81 10936 -262.79 C 10998.8 -122.44 11110.5 -67.262 11257.4 -68.317 C 11275.7 -68.449 11294 -69.324 11312.3 -68.911 C 11523.9 -64.127 11591.6 15.414 11559.8 224.508 C 11542.8 335.715 11524.4 446.838 11483.6 552.639 C 11445.1 652.455 11381.1 735.625 11294.2 793.983 C 11091.4 930.243 11079.2 1133.37 11088.5 1345.55 C 11105.2 1725.84 11273.2 2045.63 11490.6 2345.74 C 11632.9 2542.12 11835.5 2661.01 12042 2772.57 C 12202.4 2859.2 12350.7 2949.45 12431.3 3126.95 C 12519.8 3321.83 12476.7 3477.72 12286.9 3578.43 C 12238.5 3604.07 12189.1 3627.93 12138.9 3649.71 C 11936.3 3737.57 11741.7 3717.03 11552.3 3598.63 C 11643.6 3756.66 11702.2 3917.38 11709.7 4098.44 C 11716.9 4271.23 11675.1 4425.61 11572.8 4561.32 C 11423.5 4759.4 11310 4978.48 11184.7 5198.66 Z" style="stroke-width: 18.296;"/>
      <path fill="#000000" opacity="1.000000" stroke="none" d="M -87.758 -4054.6 C -171.96 -3875.8 -303.25 -3746.5 -455.32 -3635.4 C -532.77 -3578.8 -617.26 -3572.9 -707.3 -3598.1 C -911.54 -3655.4 -1096.8 -3747.1 -1224.8 -3921.1 C -1309 -4035.7 -1412.3 -4048.7 -1537.8 -4024.1 C -1640.4 -4004 -1736.7 -3969.1 -1831.8 -3927.4 C -2116.8 -3802.3 -2413.8 -3732.9 -2726.7 -3737.8 C -2866.9 -3740.1 -3007.4 -3733.1 -3147.4 -3738.6 C -3236.3 -3742.1 -3287.5 -3704.3 -3329.8 -3630.6 C -3455.4 -3411.6 -3555.8 -3177.6 -3711.3 -2976.3 C -3841.9 -2807 -3976.3 -2640.4 -4182.2 -2555.4 C -4227.7 -2536.6 -4223.2 -2504.3 -4220.5 -2465.7 C -4205.3 -2253.1 -4191.2 -2040.6 -4161.2 -1829.5 C -4157 -1799.4 -4155.5 -1768.7 -4156.3 -1738.3 C -4158.1 -1659.2 -4201.6 -1611.8 -4277.8 -1602.6 C -4353.5 -1593.5 -4397.9 -1640.9 -4418.1 -1707.7 C -4454.3 -1827.7 -4464.1 -1953 -4474.6 -2076.7 C -4487.3 -2228.1 -4501 -2379.7 -4498.1 -2532.6 C -4495.9 -2645.5 -4451.1 -2732.3 -4353.6 -2778 C -4129.7 -2883 -3990 -3070.5 -3863.4 -3268 C -3763.2 -3424.1 -3675.2 -3588.7 -3591 -3754.2 C -3496.9 -3938.7 -3350.7 -4031.2 -3146.5 -4036.4 C -2972.9 -4040.8 -2799.2 -4042.8 -2625.6 -4047.5 C -2345.1 -4055 -2092.1 -4162.7 -1838.3 -4266.5 C -1701.5 -4322.4 -1558.2 -4348 -1413.1 -4367.1 C -1252.3 -4388.3 -1120.8 -4332.9 -1011.6 -4215.3 C -935.3 -4133.3 -865.46 -4045.1 -752.55 -4004.2 C -692.33 -3982.3 -646.46 -3986.7 -602.69 -4028.6 C -576.45 -4053.8 -550.1 -4079.8 -529.26 -4109.4 C -492.4 -4161.6 -454.58 -4214.1 -426.19 -4271.1 C -313.79 -4496.4 -107.39 -4559.2 137.673 -4446.1 C 376.738 -4335.8 631.058 -4273.4 889.286 -4229.1 C 1150.99 -4184.2 1414.72 -4174.7 1677.21 -4222 C 1843.78 -4252 1987.98 -4345 2145.29 -4402.1 C 2383.39 -4488.4 2624.93 -4559.1 2876.08 -4598.1 C 3121.8 -4636.4 3348.07 -4593.6 3560.47 -4465.2 C 3686.15 -4389.3 3814.24 -4325.1 3970.32 -4330.6 C 4162.41 -4337.5 4287.98 -4432.6 4376.74 -4594.1 C 4493.35 -4806.2 4552.41 -5040.6 4641.65 -5263.3 C 4693.12 -5391.7 4758.09 -5514.8 4910.21 -5552.7 C 5137.46 -5609.2 5358.65 -5452.9 5414.41 -5205.6 C 5466.78 -4973.4 5441.2 -4737.9 5454.33 -4504.2 C 5462.85 -4352.4 5461.23 -4200.1 5464.97 -4048 C 5466 -4006.1 5462.57 -3962.1 5504.66 -3923.6 C 5571.78 -3977.3 5609.58 -4055.1 5667.79 -4114.3 C 5713.49 -4160.7 5754.36 -4234.3 5833.17 -4195.1 C 5935.65 -4144 6078.62 -4141.1 6095.01 -3977.4 C 6114.88 -3778.9 6091.33 -3582 6089.73 -3384.3 C 6089.01 -3295.9 6091.27 -3207.5 6089.47 -3119.1 C 6088.55 -3073.6 6105.69 -3043.7 6153.27 -3024.1 C 6190.21 -3093.3 6174.31 -3168 6178.33 -3237 C 6198.75 -3586.8 6188.89 -3934.7 6101.87 -4277.8 C 6069.75 -4404.4 6163.41 -4528.1 6312.34 -4545.3 C 6471.45 -4563.7 6631.5 -4579.6 6794.43 -4559.1 C 7071.02 -4524.2 7251.38 -4269.2 7299.61 -4036.5 C 7335.72 -3862.2 7283.45 -3697.5 7269.05 -3529.2 C 7255.03 -3365.3 7244.99 -3201.5 7234.3 -3037.6 C 7231.37 -2992.6 7252.61 -2969.1 7284.11 -2948.6 C 7355.56 -2901.9 7435 -2889.5 7519.43 -2888 C 7674.29 -2885.2 7830.79 -2894 7982.27 -2851.4 C 8264.2 -2772 8446.24 -2567.7 8539.31 -2312.5 C 8634.6 -2051.1 8807.18 -1973.4 9054.12 -1974.1 C 9368.14 -1975 9682.27 -1969.1 9996.16 -1975.3 C 10174.5 -1978.9 10340.8 -1936.4 10503.2 -1874.4 C 10639.2 -1822.4 10668.2 -1698.6 10577.5 -1588.1 C 10567.1 -1575.4 10547.4 -1567.4 10530.5 -1563.8 C 10457.1 -1547.9 10457 -1548.8 10404.6 -1492.6 C 10198.2 -1614.6 9966.45 -1575.3 9740.2 -1579.8 C 9417.75 -1586.2 9093.55 -1557.3 8773.56 -1613.6 C 8555.22 -1652.1 8387.98 -1769.7 8283.05 -1970.3 C 8211.52 -2107 8158.64 -2253 8045.28 -2367.7 C 7966.82 -2447.1 7882.53 -2490.5 7773.6 -2494.6 C 7645.85 -2499.3 7518.19 -2495.6 7390.21 -2508.9 C 7254.35 -2523.1 7137.09 -2576.4 7029.09 -2651.9 C 6909.25 -2735.6 6851.65 -2854.1 6847.98 -3002.6 C 6841.12 -3280.7 6872.46 -3555.5 6909.53 -3829.9 C 6919.3 -3902.2 6909 -3970.2 6883.9 -4035.2 C 6839.95 -4149 6687.73 -4206.2 6577.56 -4156.9 C 6542.61 -4141.3 6548.47 -4115.8 6553.74 -4088.2 C 6630.43 -3688.2 6595.7 -3286.6 6563.58 -2886 C 6547.5 -2685.5 6429.77 -2564.4 6269.76 -2574.5 C 6129.48 -2583.4 5997.29 -2626.3 5879.81 -2713.4 C 5731.61 -2823.3 5668.2 -2966.5 5676.8 -3147.5 C 5679.95 -3213.7 5677.31 -3280.2 5677.31 -3360 C 5634.89 -3329.5 5606.27 -3302.6 5572.6 -3285.8 C 5444.67 -3222.1 5294.82 -3276.3 5236.9 -3428.2 C 5134.63 -3696.4 5010.54 -3958.2 5035.31 -4262.5 C 5053.29 -4483.4 5034.31 -4707.2 5033.22 -4929.7 C 5033.06 -4964 5027.05 -4995.8 5012.56 -5036.3 C 4962.54 -4966.3 4959.9 -4886.7 4935.64 -4815.2 C 4843.74 -4544.4 4761.02 -4272.6 4541.31 -4064.8 C 4327.92 -3863 4077.23 -3811.6 3800.23 -3834.6 C 3636.63 -3848.1 3484.61 -3903.4 3348.14 -3993.8 C 3127.58 -4139.8 2896.69 -4089.9 2669.5 -4028.4 C 2425.87 -3962.4 2186.74 -3880 1945.37 -3805.6 C 1751.59 -3745.9 1552.62 -3765.6 1356.13 -3777.8 C 1125.59 -3792.1 895.148 -3814 668.216 -3862.4 C 441.404 -3910.7 220.804 -3978.1 6.172 -4065.8 C -23.294 -4077.9 -58.142 -4116.5 -87.758 -4054.6 Z" style="stroke-width: 18.296;"/>
    </g>
  </g>
  <g id="group-1" style="transform-origin: 405.474px 246.244px; visibility: hidden;" transform="matrix(2.576606, 0, 0, 2.582682, -155.473709, 3.755574)">
    <title>Icon_white</title>
    <g id="object-1">
      <title>Sfondo</title>
      <rect x="309.905" y="149.869" width="193.853" height="193.396" style="fill: url(&quot;#gradient-1-1&quot;); stroke: url(&quot;#gradient-2&quot;); fill-rule: nonzero; paint-order: stroke; stroke-width: 0px; stroke-miterlimit: 1; transform-box: fill-box; transform-origin: 50% 50%;" transform="matrix(0.999999, 0.001039, -0.001039, 0.999999, -1.357793, -0.322584)">
        <title>Sfondo gradient</title>
      </rect>
    </g>
    <g id="group-2" transform="matrix(0.018596, 0, 0, 0.018596, 361.074158, 228.961517)" style="">
      <title>Horseshoe</title>
      <path d="M 6846.98 1949.1 C 6846.98 3063.09 6538.86 4124.01 5955.35 5016.78 L 4668.68 4176.56 C 5087.68 3534.36 5309.74 2763.94 5309.74 1949.67 C 5309.74 -22.023 4004.41 -1625.3 2400.43 -1625.3 C 796.371 -1625.3 -508.88 -22.023 -508.88 1949.67 C -508.88 2764.22 -286.95 3534.36 132.335 4176.56 L -1154.6 5016.78 C -1737.9 4124.06 -2046 3063.14 -2046 1949.1 C -2046 -869.66 -51.408 -3162.8 2400.48 -3162.8 C 4852.51 -3162.8 6846.98 -869 6846.98 1949.1 Z M -900.46 1210.82 C -887.33 921.172 -997.67 680.482 -1147.2 672.684 C -1296.8 665.265 -1428.8 893.478 -1442.2 1183.18 C -1455.7 1473.11 -1345 1713.66 -1195.3 1721.17 C -1045.4 1729.58 -913.32 1500.8 -900.46 1210.82 Z M -53.771 -1234.1 C -171.92 -1332.4 -403.63 -1226.2 -571.78 -997.73 C -739.4 -769.23 -779.48 -504.02 -661.33 -406.81 C -543.18 -308.32 -311.19 -414.46 -143.56 -643.67 C 24.301 -871.31 64.376 -1136.4 -53.771 -1234.1 Z M 2747.13 -2308.6 C 2747.13 -2529.8 2578.46 -2708.8 2370.43 -2708.8 C 2161.92 -2708.8 1993.72 -2529.7 1993.72 -2308.6 C 1993.72 -2088.1 2161.92 -1908.8 2370.43 -1908.8 C 2578.7 -1908.8 2747.13 -2088.1 2747.13 -2308.6 Z M 5372.65 -997.73 C 5204.22 -1226.2 4973.21 -1332.4 4854.45 -1234.1 C 4736.3 -1136.4 4776.57 -871.31 4944.1 -643.67 C 5111.73 -414.46 5343.25 -308.32 5461.73 -406.81 C 5580.16 -504.02 5540.18 -769.23 5372.65 -997.73 Z M 6243.02 1183.18 C 6230.16 893.478 6098.02 664.981 5948.02 672.684 C 5798.59 681.049 5688.24 921.172 5701.66 1210.82 C 5714.47 1500.8 5846.61 1728.97 5996.04 1721.17 C 6145.85 1714.22 6256.44 1473.11 6243.02 1183.18 Z" style="fill: rgb(255, 255, 255);" id="object-0">
        <title>White</title>
      </path>
    </g>
    <g id="group-3" style="" transform="matrix(0.250853, 0, 0, 0.250853, 298.729919, 203.085648)">
      <title>Menorca big</title>
      <path opacity="1.000000" stroke="none" d="M 438.463 129.043 C 441.494 120.995 450.108 120.268 454.888 124.672 C 457.7 127.263 458.833 130.652 459.223 134.319 C 459.832 140.039 459.556 145.788 459.627 151.525 C 459.635 152.209 459.628 152.893 459.628 154.139 C 462.135 150.651 464.918 149.773 468.09 151.909 C 469.105 150.926 468.681 149.933 468.934 149.099 C 469.738 146.457 471.239 144.42 474.062 143.862 C 478.52 142.98 483.06 142.905 487.51 143.692 C 493.987 144.836 498.35 151.514 498.732 157.574 C 498.974 161.405 498.166 165.14 497.783 168.916 C 497.53 171.411 497.389 173.917 497.194 176.418 C 497.068 178.02 498.19 178.408 499.396 178.518 C 501.634 178.722 503.894 179.007 506.127 178.893 C 514.899 178.446 521.121 184.389 524.468 191.391 C 527.42 197.566 527.442 197.627 534.174 198.017 C 541.977 198.468 549.773 198.016 557.563 198.336 C 560.889 198.473 563.994 199.627 566.865 201.271 C 568.411 202.157 569.502 203.733 569.051 205.469 C 568.508 207.557 568.673 210.244 565.72 211.05 C 564.265 211.447 563.308 212.214 563.89 214.146 C 564.569 216.397 563.149 218.393 562.442 220.428 C 560.692 225.463 559.545 230.578 559.868 235.945 C 559.963 237.513 560.299 238.92 562.346 239.141 C 563.307 237.903 563.528 236.363 563.916 234.897 C 564.465 232.816 565.25 230.923 567.642 230.429 C 570.163 229.908 573.04 230.909 574.094 233.297 C 575.821 237.212 578.634 238.514 582.727 238.602 C 587.207 238.697 589.095 240.957 588.88 245.44 C 588.703 249.113 588.045 252.718 586.276 256.04 C 585.191 258.08 583.733 259.771 581.848 261.065 C 579.934 262.379 579.091 264.213 578.879 266.442 C 578.131 274.35 580.992 281.187 585.061 287.708 C 588.474 293.177 593.479 296.712 599.144 299.383 C 603.93 301.639 606.81 305.326 608.073 310.332 C 608.934 313.741 606.96 317.588 603.852 319.291 C 599.89 321.462 595.803 323.045 591.031 322.413 C 591.382 324.545 591.764 326.421 591.988 328.316 C 592.421 331.983 591.605 335.496 589.525 338.445 C 583.593 346.854 579.123 356.083 574.196 365.056 C 571.297 370.335 567.05 373.825 561.073 374.917 C 553.949 376.218 546.809 376.771 539.693 374.747 C 537.124 374.016 534.825 372.728 532.511 371.464 C 527.647 368.808 522.661 366.34 517.976 363.396 C 511.572 359.371 505.843 354.512 501.04 348.566 C 497.967 344.761 494.651 341.167 491.708 337.232 C 489.077 333.715 485.643 331.077 481.302 329.538 C 476.703 327.907 472.172 326.031 467.82 323.733 C 464.146 321.792 460.002 321.14 455.932 320.548 C 449.462 319.606 443.773 316.819 438.382 313.375 C 433.521 310.269 429.582 306.037 425.506 302.008 C 421.14 297.694 416.593 293.648 411.256 290.526 C 409.511 289.504 407.664 288.785 405.835 288.013 C 400.879 285.921 396.315 283.179 391.958 280.057 C 388.293 277.429 384.319 275.791 379.77 275.084 C 375.088 274.357 370.509 272.891 365.928 271.595 C 360.508 270.063 354.925 269.63 349.381 268.957 C 345.883 268.533 342.331 267.969 338.849 269.187 C 335.81 270.249 332.768 271.298 329.796 272.553 C 323.329 275.283 316.544 277.119 309.935 279.458 C 306.522 280.666 302.812 280.688 299.233 280.839 C 290.942 281.19 282.636 281.255 274.336 281.303 C 272.166 281.316 269.966 281.034 267.859 280.347 C 263.607 278.96 260.89 276.023 260.197 271.695 C 259.279 265.963 259.191 260.147 260.004 254.373 C 260.443 251.259 262.12 248.553 263.528 245.839 C 265.323 242.379 266.274 238.795 266.558 234.974 C 266.835 231.252 267.137 227.531 267.329 223.804 C 267.55 219.508 264.887 216.819 260.446 216.722 C 256.824 216.643 253.93 212.283 255.376 208.551 C 253.944 209.837 252.466 210.303 250.88 210.369 C 248.778 210.456 246.639 208.442 246.15 205.751 C 245.263 200.867 244.646 195.945 244.883 190.966 C 244.957 189.424 244.442 187.924 244.831 186.352 C 245.375 184.151 246.455 182.321 248.516 181.425 C 252.574 179.663 255.083 176.311 257.519 172.927 C 260.159 169.261 262.137 165.18 264.223 161.18 C 266.454 156.9 269.924 154.64 274.75 154.563 C 279.444 154.489 284.143 154.543 288.812 153.942 C 293.856 153.294 298.422 151.147 303.108 149.369 C 307.145 147.837 311.351 147.261 315.636 147.6 C 318.798 147.85 321.018 149.901 323.036 152.115 C 323.867 153.026 324.705 153.887 325.718 154.6 C 327.091 155.567 328.109 155.203 328.942 153.889 C 329.839 152.474 330.781 151.084 331.607 149.628 C 334.407 144.694 339.621 143.258 344.596 145.47 C 351.092 148.357 357.908 149.983 364.843 150.932 C 371.839 151.889 378.614 150.714 385.102 147.53 C 391.687 144.299 398.827 142.736 406.143 142.214 C 411.248 141.85 415.685 143.926 419.967 146.424 C 422.221 147.739 424.55 148.697 427.295 148.045 C 429.825 147.444 431.363 145.808 432.618 143.677 C 435.291 139.135 436.312 133.944 438.463 129.043 M 267.482 177.271 C 264.244 182.044 260.766 186.583 255.606 189.485 C 254.946 189.856 254.77 190.442 254.861 191.129 C 255.251 194.063 255.376 197.024 255.7 199.958 C 255.882 201.601 255.668 203.417 256.739 205.131 C 258.368 203.775 260.232 203.957 261.999 204.15 C 268.761 204.89 274.449 207.38 277.392 214.088 C 278.117 215.74 278.77 217.443 279.687 218.986 C 281.299 221.7 281.732 224.722 281.838 227.711 C 282.165 236.933 281.422 246.045 276.744 254.286 C 274.693 257.9 275.491 261.589 275.375 265.441 C 276.736 265.525 277.886 265.627 279.038 265.663 C 285.025 265.849 291.015 265.435 297.009 265.966 C 300.137 266.243 303.393 266.577 306.46 265.855 C 314.146 264.045 321.949 262.703 329.33 259.639 C 333.213 258.028 337.198 256.432 341.577 256.34 C 349.539 256.174 357.405 257.078 365.175 258.609 C 370.593 259.676 375.83 261.742 381.268 262.594 C 388.011 263.651 393.93 266.181 399.518 269.969 C 402.267 271.833 404.773 274.125 408.016 275.261 C 415.788 277.982 422.608 282.38 428.757 287.754 C 433.499 291.898 437.908 296.421 442.523 300.713 C 446.668 304.567 451.57 307.029 457.087 308.264 C 463.048 309.598 469.079 310.625 474.546 313.648 C 478.54 315.857 482.812 317.511 487.053 319.205 C 490.057 320.405 492.823 321.987 495.288 324.142 C 501.401 329.484 505.626 336.453 511.124 342.341 C 515.316 346.83 519.998 350.618 525.148 353.754 C 529.201 356.221 533.556 358.235 537.692 360.606 C 540.621 362.285 543.655 363.937 547.088 363.815 C 550.613 363.691 554.189 363.985 557.67 363.153 C 559.403 362.738 561.281 362.547 562.335 360.769 C 563.91 358.11 565.48 355.447 567.073 352.798 C 570.585 346.955 573.312 340.656 577.674 335.303 C 581.611 330.473 581.395 327.357 577.729 322.265 C 575.746 319.51 572.966 317.828 570.435 315.761 C 567.065 313.009 563.994 309.962 564.275 304.996 C 564.679 297.861 570.061 295.73 575.635 298.355 C 579.665 300.252 583.005 303.074 585.873 306.439 C 587.659 308.534 590.098 309.568 592.423 310.799 C 593.266 311.245 594.132 311.079 595.017 310.399 C 591.156 308.056 587.165 306.173 583.81 303.359 C 574.835 295.832 569.605 286.063 567.924 274.607 C 567.024 268.473 567.82 262.292 571.247 256.776 C 572.393 254.932 574.057 253.588 575.62 252.157 C 576.637 251.226 577.216 250.186 577.261 248.728 C 575.029 247.787 572.561 247.337 570.729 245.495 C 569.631 246.717 568.577 248.002 567.052 248.331 C 560.695 249.703 552.418 247.154 551.068 238.417 C 550.649 235.701 551.266 233.184 551.476 230.576 C 552.029 223.672 553.492 217.047 557.278 211.094 C 556.63 210.66 555.902 210.87 555.214 210.858 C 546.793 210.7 538.363 210.99 529.951 210.411 C 523.399 209.96 518.211 207.256 515.182 201.154 C 514.523 199.827 514.038 198.39 513.229 197.165 C 511.441 194.456 509.85 191.51 505.911 191.333 C 504.043 191.25 502.176 191.197 500.313 191.212 C 497.417 191.237 494.683 190.618 492.102 189.359 C 487.668 187.194 484.709 183.925 484.8 178.705 C 484.862 175.112 484.754 171.509 485.187 167.922 C 485.534 165.048 485.912 162.165 486 159.277 C 486.065 157.155 485.134 156.338 483.363 156.369 C 482.885 158.044 483.687 159.656 483.648 161.322 C 483.505 167.568 483.915 173.829 483.216 180.06 C 482.778 183.961 481.87 187.662 477.624 189.209 C 474.663 190.288 471.731 189.587 468.938 188.522 C 464.315 186.759 459.476 182.564 460.113 176.702 C 460.165 176.219 460.232 175.652 459.581 175.205 C 455.353 175.84 452.337 174.046 450.609 170.049 C 450.201 169.107 449.88 168.128 449.51 167.169 C 447.792 162.718 445.966 158.318 446.561 153.341 C 446.799 151.346 446.6 149.299 446.6 147.15 C 446.329 147.313 446.248 147.332 446.231 147.376 C 445.996 147.974 445.792 148.585 445.538 149.175 C 443.606 153.667 440.756 157.64 436.595 160.057 C 428.698 164.644 420.554 164.42 412.527 159.936 C 410.312 158.699 408.136 157.176 405.324 157.612 C 400.661 158.335 396.184 159.73 391.692 161.123 C 387.402 162.452 383.231 164.381 378.638 164.442 C 366.433 164.605 354.474 163.069 342.98 158.792 C 341.682 158.309 341.206 158.696 340.703 159.615 C 339.084 162.578 336.581 164.685 333.95 166.676 C 331.859 168.257 329.53 168.702 327.008 168.087 C 321.932 166.85 317.473 164.556 314.191 160.354 C 313.32 159.239 312.397 158.777 310.888 158.973 C 308.814 159.242 306.862 159.782 304.965 160.593 C 299.546 162.911 294.009 164.621 288.041 164.945 C 283.984 165.165 279.935 165.137 275.882 165.172 C 274.647 165.182 273.857 165.552 273.26 166.686 C 271.432 170.159 269.505 173.581 267.482 177.271 Z" style="stroke-width: 0.387; paint-order: fill; fill: rgb(255, 255, 255);"/>
    </g>
  </g>
  <g id="svg-2" style="" transform="matrix(0.44595, 0, 0, 0.44595, 88.613686, 153.700623)">
    <title>Horse and horseshoe</title>
    <g id="group-4" transform="matrix(5.777792, 0, 0, 5.791416, -507.154541, -494.10267)" style="transform-origin: 308.447px 149.446px;">
      <title>Sfondo</title>
      <rect x="309.905" y="149.869" width="193.853" height="193.396" style="fill-rule: nonzero; paint-order: stroke; stroke-width: 0px; stroke-miterlimit: 1; transform-box: fill-box; transform-origin: 50% 50%; fill: url(&quot;#gradient-1-2&quot;); stroke: url(&quot;#gradient-4&quot;);" transform="matrix(0.999999, 0.001039, -0.001039, 0.999999, -1.357793, -0.322584)">
        <title>Sfondo gradient</title>
      </rect>
    </g>
    <g>
      <title>Horseshoe</title>
      <path opacity="1.000000" d="M 182.775 487.589 C 213.606 531.052 250.541 568.089 292.789 599.801 C 333.301 630.21 377.547 653.782 425.456 670.38 C 426.775 670.837 426.771 670.849 428.795 672.994 C 427.567 674.679 425.75 674.025 424.245 673.95 C 405.966 673.044 387.682 672.287 369.49 670.031 C 338.574 666.198 308.164 660.017 278.301 651.13 C 213.237 631.767 154.877 600.082 102.856 556.462 C 74.864 532.991 49.681 507.023 28.905 476.917 C 2.797 439.085 -15.48 397.74 -26.12 353.042 C -32.768 325.117 -36.191 296.748 -36.431 268.061 C -36.838 219.259 -27.321 172.258 -10.454 126.561 C 10.455 69.917 41.495 19.455 81.24 -25.829 C 84.907 -30.007 89.275 -33.673 92.367 -39.098 C 88.075 -39.966 85.053 -38.071 82.05 -36.696 C 60.405 -26.779 43.098 -11.199 27.467 6.275 C -10.699 48.939 -38.617 97.978 -61.23 150.266 C -74.537 181.035 -85.146 212.678 -92.527 245.389 C -93.769 250.894 -94.899 256.425 -96.11 261.937 C -96.172 262.219 -96.505 262.441 -96.642 262.606 C -97.824 262.615 -98.243 261.917 -98.442 261.081 C -102.83 242.636 -106.99 224.164 -108.79 205.22 C -109.92 193.276 -110.76 181.348 -110.69 169.345 C -110.45 124.741 -101.92 81.796 -85.481 40.337 C -66.995 -6.279 -40.266 -47.452 -4.892 -83.001 C 34.142 -122.23 79.875 -150.49 132.836 -166.8 C 153.927 -173.29 175.622 -176.22 197.61 -177.79 C 218.347 -179.27 239.171 -179.8 259.801 -182.6 C 273.406 -184.45 285.157 -191.59 297.606 -196.61 C 326.862 -208.41 354.642 -223.19 381.219 -240.2 C 382.339 -240.92 383.498 -241.58 384.693 -242.16 C 385.084 -242.35 385.646 -242.19 386.141 -242.19 C 387.492 -240.3 386.979 -238.31 386.691 -236.38 C 382.774 -210.07 378.963 -183.75 374.821 -157.49 C 373.603 -149.76 372.747 -142.01 371.734 -134.27 C 370.824 -127.31 372.471 -121.25 376.977 -115.73 C 401.148 -86.137 418.241 -52.591 431.934 -17.121 C 446.337 20.189 457.029 58.653 468.031 97.033 C 485.121 156.655 499.531 216.965 514.663 277.093 C 520.824 301.574 521.287 326.228 516.872 350.841 C 513.38 370.299 498.691 381.494 478.978 381.959 C 471.415 382.137 464.053 380.773 456.634 379.872 C 448.887 378.93 441.4 380.549 433.818 381.415 C 415.767 383.478 400.79 375.667 394.333 360.717 C 391.875 355.029 390.597 349.021 390.451 342.789 C 389.374 296.941 358.982 258.829 314.667 247.694 C 310.31 246.599 305.993 245.349 301.666 244.139 C 297.254 242.907 296.881 241.648 300.11 238.137 C 304.282 233.6 308.593 229.191 312.817 224.702 C 313.82 223.636 315.002 222.636 315.136 220.466 C 310.882 219.052 307.05 221.034 303.252 222.067 C 288.761 226.008 274.123 229.349 259.082 229.616 C 237.048 230.007 217.702 222.295 200.642 208.56 C 178.492 190.726 167.519 167.027 164.259 139.271 C 164.045 137.455 163.641 135.662 163.388 133.85 C 163.182 132.374 163.317 130.596 161.417 130.246 C 159.654 129.921 158.821 131.463 157.978 132.677 C 148.932 145.716 141.23 159.501 134.946 174.081 C 117.738 214.006 112.942 255.992 116.274 298.786 C 121.174 361.704 140.187 420.315 173.711 474.003 C 176.53 478.517 179.609 482.869 182.775 487.589 Z" style="fill: rgb(255, 255, 255); stroke-width: 26.9088px; stroke-miterlimit: 1; paint-order: fill markers; filter: none;">
        <title>Horse</title>
      </path>
      <path opacity="1.000000" stroke="none" d="M 603.439 -133.46 C 601.215 -149.88 599.111 -165.89 599.381 -182.08 C 599.553 -192.41 600.728 -202.65 602.431 -212.84 C 603.534 -219.44 607.494 -223.35 613.831 -224.46 C 635.928 -228.32 658.187 -228.53 680.505 -226.94 C 691.445 -226.15 702.369 -225.34 713.241 -223.75 C 719.571 -222.82 723.029 -219.88 725.186 -213.64 C 733.516 -189.52 736.804 -164.55 739.038 -139.33 C 739.184 -137.68 739.662 -136.06 739.838 -134.41 C 740.723 -126.11 737.646 -120.88 729.897 -117.37 C 728.549 -116.76 727.21 -116.13 725.39 -115.29 C 728.791 -107.78 733.317 -101.24 738.129 -94.993 C 766.977 -57.514 787.542 -15.749 803.151 28.708 C 813.202 57.333 821.024 86.505 826.128 116.385 C 830.922 144.453 833.329 172.733 834.23 201.228 C 834.91 222.749 834.153 244.192 832.607 265.565 C 830.63 292.918 826.581 320.058 820.361 346.843 C 810.521 389.223 795.808 429.793 775.492 468.262 C 752.725 511.372 723.621 549.529 686.798 581.762 C 655.54 609.124 620.943 630.933 582.471 646.527 C 556.011 657.251 528.598 664.558 500.404 669.202 C 487.409 671.342 492.967 670.961 479.09 672.57 C 458.883 674.913 387.842 636.312 365.083 623.461 C 308.076 591.272 272.849 562.102 244.576 533.353 C 216.087 504.385 196.995 475.351 184.966 454.701 C 170.668 430.155 167.012 421.465 166.157 419.744 C 166.157 419.744 134.211 344.615 150.844 356.633 C 173.549 373.038 251.562 438.943 252.159 439.39 C 293.335 470.231 339.584 489.306 390.082 498.024 C 429.013 504.745 467.333 501.093 504.896 489.061 C 548.197 475.192 585.197 451.286 616.231 418.244 C 641.11 391.756 660.071 361.345 674.274 327.911 C 684.4 304.075 691.583 279.322 696.703 254.026 C 701.023 232.684 703.59 211.077 704.697 189.252 C 705.687 169.71 704.998 150.257 703.107 130.894 C 700.617 105.396 695.554 80.31 688.452 55.639 C 673.628 4.143 649.769 -43.134 621.556 -88.382 C 612.91 -102.25 606.867 -117.08 603.439 -133.46 M 769.52 193.605 C 778.689 192.169 780.433 187.479 780.026 180.154 C 779.843 176.864 779.702 173.52 779.284 170.241 C 778.166 161.493 778.891 152.618 777.314 143.909 C 776.487 139.339 774.815 135.407 769.471 135.062 C 765.341 134.795 761.179 134.688 757.065 135.73 C 751.739 137.077 748.93 140.24 749.265 145.674 C 750.071 158.763 750.982 171.85 752.126 184.913 C 752.499 189.175 754.911 192.242 759.399 193.391 C 762.54 194.195 765.646 194.08 769.52 193.605 M 751.318 388.915 C 754.402 380.136 757.435 371.339 760.584 362.583 C 764.694 351.152 763.892 349.259 752.695 344.741 C 751.308 344.181 749.941 343.548 748.514 343.117 C 742.394 341.27 738.099 343.323 735.903 349.359 C 731.645 361.067 727.466 372.804 723.356 384.565 C 720.631 392.364 722.012 395.27 729.667 398.55 C 743.329 404.403 745.739 403.4 751.318 388.915 M 715.183 -54.414 C 708.276 -69.638 704.468 -67.852 691.796 -61.294 C 691.354 -61.065 690.951 -60.759 690.512 -60.524 C 686.115 -58.17 684.696 -54.323 686.532 -49.993 C 692.044 -36.996 698.228 -24.296 704.961 -11.886 C 707.106 -7.932 710.896 -6.396 715.206 -7.945 C 718.781 -9.231 722.288 -10.914 725.508 -12.929 C 730.397 -15.99 731.448 -20.082 728.97 -25.379 C 724.535 -34.86 719.956 -44.273 715.183 -54.414 M 604.213 564.596 C 607.931 566.815 611.236 565.724 614.349 563.3 C 623.543 556.139 632.778 549.03 641.9 541.777 C 651.331 534.277 651.608 529.39 643.234 520.486 C 641.88 519.046 640.237 517.858 638.641 516.67 C 635.446 514.292 632.157 514.219 628.983 516.687 C 618.075 525.168 607.126 533.601 596.346 542.243 C 592.801 545.085 592.07 548.941 594.615 552.947 C 597.202 557.018 599.854 561.066 604.213 564.596 Z" style="stroke-width: 1; filter: url(&quot;#round-edges-filter-0&quot;); fill: rgb(255, 255, 255);">
        <title>Horseshoe</title>
      </path>
    </g>
  </g>
</svg>